# xmcd
#
# Track frame offsets:
#	150
#	8177
#	20843
#	29183
#	37478
#	47657
#	57706
#	66208
#	76505
#	82746
#	93997
#	106665
#	116436
#	126095
#	136569
#	147021
#	158055
#	168452
#	179958
#	185995
#	197900
#	209394
#	219833
#	228434
#	239646
#
# Disc length: 3327 seconds
#
# Revision: 1
# Processed by: cddbd v1.5.1PL0 Copyright (c) Steve Scherf et al.
# Submitted via: MusicWizard 7.0.2
#
DISCID=690cfd19
DTITLE=Johnny Cash - The Greatest Hits - CD2
DYEAR=2001
DGENRE=Country
TTITLE0=Hey, Good Lookin'
TTITLE1=I Walk The Line
TTITLE2=Sugartime
TTITLE3=I Can't Help It (If I'm Still In Love With You)
TTITLE4=Ballad Of A Teenage Queen
TTITLE5=Born To Lose
TTITLE6=Country Boy
TTITLE7=Hey Porter
TTITLE8=You Tell Me
TTITLE9=Cry, Cry, Cry
TTITLE10=Don't Make Me Go
TTITLE11=I Forgot To Remember To Forget (Alt)
TTITLE12=Down The Street To 301
TTITLE13=Get Rythm (Alt)
TTITLE14=I Was There When It Happened
TTITLE15=Train Of Love
TTITLE16=Goodbye Little Darlin'
TTITLE17=Mean Eyed Cat
TTITLE18=My Treasure
TTITLE19=Wide Open Road
TTITLE20=Oh Lonesome Me
TTITLE21=Straight A's In Love
TTITLE22=The Wreck Of The Old '97
TTITLE23=I Love You Because (Alt)
TTITLE24=The Story Of A Broken Heart
EXTD=YEAR: 2002 ID3G: 2
EXTT0=
EXTT1=
EXTT2=
EXTT3=
EXTT4=
EXTT5=
EXTT6=
EXTT7=
EXTT8=
EXTT9=
EXTT10=
EXTT11=
EXTT12=
EXTT13=
EXTT14=
EXTT15=
EXTT16=
EXTT17=
EXTT18=
EXTT19=
EXTT20=
EXTT21=
EXTT22=
EXTT23=
EXTT24=
PLAYORDER=
